{"title":"The True History of the Traveling Wilburys (2007)","uid":10312836,"size":380453660,"categoryP":"video","categoryS":"movies","magnet":"?xt=urn:btih:caf05a7de414611031b30d31263b233268784399&amp;dn=The+True+History+of+the+Traveling+Wilburys+%282007%29&amp;tr=udp%3A%2F%2Ftracker.openbittorrent.com%3A80&amp;tr=udp%3A%2F%2Fopen.demonii.com%3A1337&amp;tr=udp%3A%2F%2Ftracker.coppersurfer.tk%3A6969&amp;tr=udp%3A%2F%2Fexodus.desync.com%3A6969","seeders":1,"leechers":0,"uploader":"mariopan","files":3,"time":1402205600,"description":"Spring, 1988: George Harrison asks Jeff Lynne, Roy Orbison, and Tom Petty to spend a day in the studio at Bob Dylan's L.A. house. The result is &quot;Handle With Care.&quot; He liked the process so much that the five of them, plus Jim Keltner, spend a week in May at Dave Stewart's house, where they write and record a song a day to produce an album. We watch the creative process: group efforts (&quot;Dirty World&quot; is a found poem) and individual ones (Dylan's lyrics for &quot;Congratulations'). Petty calls them &quot;a bunch of friends who happened to be really good at making music.&quot; The album, released in October, goes platinum. The rock video for &quot;End of the Line&quot; is a eulogy for Orbison (1936-1988).\n\nIncludes clips: Handle With Care and End of the Line\n\nFormat                                   : AVI\nFormat/Info                              : Audio Video Interleave\nFile size                                : 286 MiB\nDuration                                 : 24mn 54s\nOverall bit rate                         : 1 604 Kbps\nWriting application                      : Lavf51.12.1\n\nVideo\nID                                       : 0\nFormat                                   : MPEG-4 Visual\nFormat profile                           : Simple@L1\nFormat settings, BVOP                    : No\nFormat settings, QPel                    : No\nFormat settings, GMC                     : No warppoints\nFormat settings, Matrix                  : Default (H.263)\nCodec ID                                 : divx\nCodec ID/Info                            : Mainly used by Google\nCodec ID/Hint                            : DivX\nDuration                                 : 24mn 53s\nBit rate                                 : 1 399 Kbps\nWidth                                    : 700 pixels\nHeight                                   : 384 pixels\nDisplay aspect ratio                     : 1.85:1\nFrame rate                               : 29.970 fps\nColor space                              : YUV\nChroma subsampling                       : 4:2:0\nBit depth                                : 8 bits\nScan type                                : Progressive\nCompression mode                         : Lossy\nBits/(Pixel*Frame)                       : 0.174\nStream size                              : 249 MiB (87%)\nWriting library                          : Lavc51.40.4\n\nAudio\nID                                       : 1\nFormat                                   : MPEG Audio\nFormat version                           : Version 1\nFormat profile                           : Layer 3\nMode                                     : Joint stereo\nMode extension                           : MS Stereo\nCodec ID                                 : 55\nCodec ID/Hint                            : MP3\nDuration                                 : 24mn 54s\nBit rate mode                            : Constant\nBit rate                                 : 192 Kbps\nChannel(s)                               : 2 channels\nSampling rate                            : 48.0 KHz\nCompression mode                         : Lossy\nStream size                              : 34.2 MiB (12%)\nAlignment                                : Aligned on interleaves\nInterleave, duration                     : 24 ms (0.72 video frame)\nWriting library                          : LAME3.97","torrent":{"xt":"urn:btih:caf05a7de414611031b30d31263b233268784399","amp;dn":"The+True+History+of+the+Traveling+Wilburys+%282007%29","amp;tr":["udp%3A%2F%2Ftracker.openbittorrent.com%3A80","udp%3A%2F%2Fopen.demonii.com%3A1337","udp%3A%2F%2Ftracker.coppersurfer.tk%3A6969","udp%3A%2F%2Fexodus.desync.com%3A6969"],"infoHash":"caf05a7de414611031b30d31263b233268784399","infoHashBuffer":{"type":"Buffer","data":[202,240,90,125,228,20,97,16,49,179,13,49,38,59,35,50,104,120,67,153]},"announce":[],"urlList":[]}}